<svg class="h-8 w-auto" viewBox="-7.939 -5.108 258 89" xmlns="http://www.w3.org/2000/svg"><path d="m233.66 45.334l-3.731-3.275-2.302-2.021-1.606-1.41c-0.851 2.839-1.696 5.679-2.518 8.526-3.313-3e-3 -6.693 2.057-7.785 5.446l-0.552 1.723-1.039 3.223-0.939 2.918-1.521 4.727c-0.398 1.232 0.186 2.76 1.16 3.568 0.42 0.348 0.903 0.577 1.449 0.452 0.5-0.114 0.951-0.377 1.419-0.568 0.357-0.146 0.618-0.198 0.903 0.095 0.344 0.352 0.613 0.767 0.979 1.104 0.421 0.387 1.01 0.77 1.612 0.696 0.558-0.069 1.029-0.421 1.556-0.609 1.211-0.439 1.552 0.974 2.292 1.595 0.431 0.355 0.913 0.482 1.449 0.348 0.502-0.123 0.956-0.363 1.429-0.564 0.304-0.135 0.709-0.338 1.028-0.138 0.325 0.212 0.493 0.63 0.783 0.892 0.963 0.87 2.235 0.729 3.2-0.038 0.546-0.435 1.029-1.031 1.248-1.699l0.982-3.056c0.58 0.988 1.76 0.257 2.314-0.353 0.768-0.839 1.267-1.911 1.681-2.958 0.892-2.258 1.227-4.729 0.813-7.134-0.116-0.658-0.286-1.304-0.522-1.931 0.034 4e-3 0.069 4e-3 0.104 8e-3 -0.542-1.276-1.352-2.525-2.489-3.603 0 0 0.102-0.354 0.282-0.991 0.264-0.926 0.701-2.447 1.25-4.34-1.023 0.217-2.198 7e-3 -2.929-0.633" fill="#ED1C24"></path><path d="m222.23 20.625l-2.689 1.471-2.411 1.313c2.793 2.34 4.681 3.896 4.681 3.896-1.319 3.039-0.772 6.959 1.904 9.303l2.299 2.021 1.609 1.408 2.302 2.021 3.731 3.275c0.993 0.869 2.652 0.93 3.789 0.326 0.518-0.277 0.876-0.65 0.959-1.239 0.063-0.471 0.014-0.946 0.023-1.421 0.011-0.403 0.079-0.651 0.48-0.797 0.592-0.214 1.205-0.316 1.75-0.649 0.526-0.317 0.905-0.74 0.961-1.362 0.042-0.474-0.05-0.952 3e-3 -1.424 0.141-1.215 1.721-0.943 2.52-1.442 0.959-0.593 0.78-1.72 0.786-2.691 3e-3 -0.317-0.014-0.735 0.282-0.938 0.297-0.211 0.725-0.201 1.06-0.339 1.072-0.442 1.568-1.505 1.388-2.612-0.127-0.801-0.524-1.646-1.142-2.189l-3.224-2.83c0.951-0.116 1.192-1.266 0.991-2.043-0.319-1.234-1.378-2.193-2.366-2.921-1.596-1.163-3.316-2.181-5.224-2.733-2.143-0.619-4.426-0.559-6.49 0.32 0 0-0.844-0.686-2.225-1.822-0.275 0.732-0.765 1.38-1.392 1.724l-4.355 2.374z" fill="#FBB03B"></path><path d="m173.28 27.109l-0.077-0.263c-0.108 0.047-0.215 0.095-0.317 0.138 0.144 0.029 0.28 0.071 0.394 0.125" fill="#EA7128"></path><path d="m192.83 18.84l1.41 4.76 0.87 2.939 0.672 2.278c5.516-3.138 9.807-5.652 9.807-5.652 2.4 2.286 6.27 3.12 9.392 1.417l2.154-1.174 2.411-1.313 2.689-1.471 4.356-2.376c1.201-0.656 1.849-2.296 1.583-3.607-0.116-0.581-0.385-0.964-0.916-1.22-0.451-0.215-0.945-0.32-1.397-0.534-0.363-0.169-0.413-0.414-0.395-0.796 0.026-0.523 0.093-1.041 0.016-1.566-0.079-0.547-0.29-1.115-0.774-1.414-0.415-0.253-0.9-0.336-1.344-0.515-0.406-0.161-0.726-0.423-0.781-0.879-0.054-0.466 0.104-0.935 0.135-1.396 0.037-0.503-0.048-1.093-0.425-1.46-0.365-0.36-0.892-0.533-1.364-0.7-0.372-0.13-0.895-0.237-1.174-0.54-0.213-0.23-0.127-0.584-0.094-0.862 0.135-1.015-0.342-2.056-1.306-2.479-0.935-0.41-2.19-0.369-3.091 0.123l-3.29 1.795c-0.053-0.467-0.298-0.934-0.669-1.224-0.799-0.627-1.949-0.356-2.814-0.026-1.32 0.494-2.505 1.31-3.67 2.078-0.929 0.615-1.854 1.262-2.655 2.035-0.757 0.734-1.364 1.601-1.705 2.607-0.488 1.447-0.473 3.031-0.393 4.536 0 0-3.683 2.196-8.543 4.97 0.618 0.421 1.112 1.013 1.305 1.666" fill="#A9C832"></path><path d="m189.27 48.183l3.063 0.074 3.462 0.087c-1.477-4.623-2.57-7.934-2.57-7.934 2.743-1.869 4.368-5.477 3.356-8.887l-0.803-2.706-0.672-2.278-0.87-2.939-1.41-4.76c-0.388-1.3-1.829-2.27-3.157-2.305-0.581-0.016-1.033 0.148-1.396 0.609-0.319 0.399-0.526 0.873-0.836 1.278-0.237 0.313-0.468 0.331-0.831 0.237-0.471-0.121-0.925-0.289-1.413-0.341-0.54-0.059-1.185-0.021-1.607 0.358-0.388 0.35-0.58 0.854-0.865 1.283-0.255 0.379-0.586 0.643-1.068 0.586-0.445-0.055-0.854-0.289-1.286-0.416-0.468-0.142-1.05-0.191-1.487 0.074-0.436 0.263-0.723 0.742-0.979 1.162-0.216 0.352-0.431 0.832-0.78 1.072-0.262 0.178-0.588 0.038-0.85-0.059-0.992-0.357-2.136-0.123-2.76 0.77-0.582 0.824-0.797 2.051-0.511 3.023l0.202 0.673 0.077 0.263c-0.623-0.291-1.369-0.148-1.746 0.449-0.112 0.18-0.187 0.38-0.24 0.586-0.161 0.637-0.119 1.326-0.034 1.973 0.146 1.128 0.465 2.227 0.82 3.301 0.433 1.299 0.929 2.588 1.546 3.811 0.794 1.56 1.818 3.023 3.16 4.162 1.304 1.105 2.878 1.844 4.566 2.115 0 0 0.655 1.932 1.614 4.879 0.434-0.216 0.895-0.337 1.341-0.326l4.964 0.126z" fill="#00C0F3"></path><path d="m193.66 72.219c1.852-0.359 3.71-0.553 5.483-1.236 2.18-0.838 4.025-2.319 5.096-4.417 0 0 3.042-0.042 7.345-0.034-0.075-0.464-0.059-0.926 0.074-1.342l1.521-4.727 0.939-2.918 1.039-3.223c-5.805-0.033-10.209-8e-3 -10.209-8e-3 -0.933-3.182-3.868-5.839-7.425-5.928l-1.734-0.043-3.46-0.083-3.064-0.078-4.966-0.124c-1.298-0.033-2.6 0.963-3.099 2.129-0.212 0.504-0.289 1.037-0.013 1.525 0.26 0.45 0.648 0.811 0.966 1.221 0.23 0.297 0.327 0.526 0.133 0.867-0.223 0.393-0.512 0.741-0.725 1.145-0.25 0.479-0.473 1.109-0.329 1.65 0.148 0.55 0.621 0.938 0.973 1.357 0.315 0.377 0.504 0.801 0.275 1.273-0.204 0.426-0.571 0.758-0.831 1.147-0.276 0.424-0.473 0.979-0.313 1.479 0.159 0.491 0.531 0.901 0.861 1.283 0.246 0.287 0.649 0.646 0.708 1.043 0.053 0.332-0.258 0.614-0.433 0.858-0.715 0.995-0.547 2.285 0.332 3.109 0.621 0.582 1.513 1.011 2.374 1.029l3.939 0.1c-0.365 0.392-0.308 1.041-0.117 1.497 0.234 0.559 0.705 0.979 1.244 1.232 1.056 0.502 2.303 0.433 3.416 0.217 1.886-0.369-1.888 0.365 0 0" fill="#9E005D"></path><path d="M28.784,55.547H0V3.436h17.866c6.75,0,10.918,4.27,10.918,11.02V55.547z M17.568,47.012V15.348 c0-2.283-1.092-3.375-3.176-3.375h-3.177v35.039H17.568z" fill="#414042"></path><path d="M46.946,33.016H35.73V3.436h11.216V33.016z" fill="#414042"></path><path d="M67.988,55.547H52.404v-8.535h4.367V11.973h-4.169V3.436h15.386V55.547z" fill="#414042"></path><path d="M86.149,55.547H74.934V3.436h11.216V55.547z" fill="#414042"></path><path d="m121.78 55.547h-14.293v-8.535h3.076v-33.055c0-1.488-0.694-2.184-2.184-2.084-0.298 0-0.694 0-1.19 0.1h-0.795l-3.871 43.574h-10.918l4.069-43.574h-4.367v-8.537h20.745c6.452 0 9.728 3.277 9.728 9.828v42.283z" fill="#414042"></path><path d="m156.82 55.547h-11.216v-43.574h-17.072v-8.537h28.288v52.111zm-17.072 0h-11.216v-35.932h11.216v35.932z" fill="#414042"></path><g fill="#1A1A1A"><path d="m5.884 66.213c2.443 0 3.026 1.598 3.026 3.881v5.089h-1.521v-5.385c0-1.319-0.279-2.333-1.606-2.333h-2.07v7.718h-3.129v-1.226h1.631v-6.492h-0.972v-1.252h4.641z"></path><path d="m12.837 66.213v8.97h-1.589v-8.97h1.589z"></path><path d="M22.033,73.957v1.226H14.78v-1.226h4.522v-6.492H14.78v-1.252h6.078v7.744H22.033z"></path><path d="m25.231 66.213v8.97h-1.589v-8.97h1.589z"></path><path d="m34.715 66.213v4.328c0 3.483-1.716 4.642-4.227 4.642h-2.494l-0.879-8.97h1.572l0.735 7.744h0.998c1.732 0 2.789-0.541 2.789-3.947v-2.545h-2.028v-1.252h3.534z"></path><path d="m45.732 66.213c2.443 0 3.026 1.598 3.026 3.881v5.089h-1.521v-5.385c0-1.319-0.279-2.333-1.606-2.333h-2.07v7.718h-3.128v-1.226h1.631v-6.492h-0.972v-1.252h4.64z"></path><path d="m52.685 66.213v8.97h-1.589v-8.97h1.589z"></path><path d="m57.392 66.213c2.46 0 3.01 1.666 3.01 3.948v5.021h-1.572v-5.122c0-1.336-0.263-2.596-1.521-2.596h-2.705v-1.252h2.788z"></path><path d="m69.601 66.213v4.328c0 3.483-1.716 4.642-4.227 4.642h-2.494l-0.879-8.97h1.572l0.735 7.744h0.998c1.732 0 2.789-0.541 2.789-3.947v-2.545h-2.028v-1.252h3.534z"></path><path d="m74.888 73.957h2.46v-4.125c0-1.438-0.347-2.367-1.877-2.367h-1.064l-1.632 7.718h-1.556l1.69-7.718h-1.453v-1.252h3.947c2.705 0 3.433 1.438 3.433 4.363v4.606h-3.948v-1.225z"></path><path d="m86.962 66.213l-3.288 8.97h-1.521l2.772-7.718h-4.59v-3.086h1.352v1.834h5.275z"></path><path d="m99.559 75.183h-7.135v-8.97h4.101c2.308 0 3.034 1.143 3.034 3.398v5.572zm-1.446-5.495c0-1.234-0.118-2.223-1.725-2.223h-2.485v6.483h4.21v-4.26z"></path><path d="m103.37 66.205v4.649h-1.59v-4.649h1.59z"></path><path d="m108.88 66.213c2.443 0 3.618 1.158 3.618 3.602v1.783c0 2.427-1.26 3.585-3.618 3.585h-3.111v-1.226h3.179c1.184 0 1.995-0.508 1.995-2.273v-2.004c0-1.768-0.777-2.215-1.995-2.215h-1.682v3.584h-1.514v-4.836h3.128z"></path><path d="m121.88 66.213v4.328c0 3.483-1.75 4.642-4.261 4.642h-2.045l-1.107-8.97h7.413zm-1.437 1.252h-4.286l0.795 6.492h0.583c1.75 0 2.908-0.381 2.908-3.796v-2.696z"></path><path d="m126.02 66.213c2.443 0 3.618 1.158 3.618 3.602v1.783c0 2.427-1.276 3.585-3.618 3.585h-2.511v-1.226h2.578c1.184 0 1.979-0.575 1.979-2.342v-1.75c0-1.783-0.777-2.4-1.979-2.4h-2.595v-1.252h2.528z"></path><path d="m142.77 66.213v4.328c0 3.483-1.75 4.642-4.261 4.642h-2.045l-1.107-8.97h7.413zm-1.436 1.252h-4.286l0.795 6.492h0.583c1.75 0 2.908-0.381 2.908-3.796v-2.696z"></path><path d="m146.5 66.213v8.97h-1.589v-8.97h1.589z"></path><path d="m150.59 66.205v4.649h-1.59v-4.649h1.59z"></path><path d="m155.02 73.162c-0.254 1.217-1.006 2.021-2.477 2.021h-0.516v-1.353h0.659c1.589 0 2.079-0.947 2.079-2.197 0-0.221-0.017-0.449-0.042-0.677-0.144-1.302-0.432-3.491-0.432-3.491h-1.724v-1.252h2.992l1.141 8.97h-1.369l-0.278-2.021h-0.033z"></path></g></svg>